PathFileType	4	(X/Y/Z)	OpenSim_Sub04_CSStiffKnee_Magnet.trc
DataRate	CameraRate	NumFrames	NumMarkers	Units	OrigDataRate	OrigDataStartFrame	OrigNumFrames
100	100	37	8	m	100	5560	7413
Frame#	Time	torso_imu_offset_imu	pelvis_imu_offset_imu	tibia_r_imu_offset_imu	femur_r_imu_offset_imu	tibia_l_imu_offset_imu	femur_l_imu_offset_imu	toes_r_imu_offset_imu	toes_l_imu_offset_imu
				X1	Y1	Z1	X2	Y2	Z2	X3	Y3	Z3	X4	Y4	Z4	X5	Y5	Z5	X6	Y6	Z6	X7	Y7	Z7	X8		Y8	Z8	

5560	55.59000000	0.93847578	0.23377211	-0.16451045	-0.54309888	0.11142511	-0.78025163	-0.51807286	-0.63904736	-0.17494408	-0.80510877	-0.23776011	0.05137242	-0.42247555	0.72397638	0.25909737	-0.30007514	0.32290085	0.60432172	-0.81366626	-0.24088988	-0.40361768	-0.84263783	-0.22257613	-0.16337660
5561	55.60000000	0.93618914	0.23140736	-0.16145318	-0.54304485	0.10643004	-0.78377051	-0.51842515	-0.64269207	-0.18141476	-0.80607561	-0.24728917	0.05640322	-0.43848786	0.70896200	0.26676032	-0.30085146	0.31086991	0.60127045	-0.81432302	-0.24527404	-0.39391114	-0.83477387	-0.23408798	-0.18238179
5562	55.61000000	0.93697228	0.22820397	-0.16385267	-0.54976652	0.10311912	-0.77807170	-0.51598084	-0.64389512	-0.18305259	-0.79911398	-0.25212359	0.05961624	-0.45417910	0.68843897	0.27244416	-0.30865739	0.30730657	0.59944126	-0.81526791	-0.24958850	-0.39050211	-0.81954661	-0.25155030	-0.20019689
5563	55.62000000	0.93884277	0.22580155	-0.16285707	-0.55157799	0.10413845	-0.78207631	-0.51585205	-0.64475909	-0.18880833	-0.79845661	-0.26068403	0.06011741	-0.47707087	0.67715772	0.26851366	-0.31667805	0.30169626	0.59471145	-0.81787206	-0.25037455	-0.39424679	-0.80251885	-0.26656274	-0.21483627
5564	55.63000000	0.94439369	0.22684813	-0.16205306	-0.54697097	0.10474095	-0.78326671	-0.51513027	-0.64892837	-0.19404149	-0.79839431	-0.27582046	0.05664074	-0.49363626	0.66528908	0.27273616	-0.31906892	0.29035194	0.59795417	-0.81832612	-0.24829816	-0.39349045	-0.78979998	-0.28014557	-0.22224503
5565	55.64000000	0.94602040	0.22567740	-0.16011649	-0.54333969	0.10753375	-0.78266503	-0.50516418	-0.64862230	-0.19728577	-0.79252979	-0.28583246	0.05891795	-0.50503181	0.64693754	0.27267439	-0.32538934	0.28359605	0.58942935	-0.82011910	-0.24975398	-0.39083968	-0.77515822	-0.29458817	-0.22866160
5566	55.65000000	0.94310799	0.22075171	-0.15270366	-0.54762957	0.10884215	-0.77982082	-0.50380271	-0.65156962	-0.19973061	-0.79008213	-0.28748176	0.05782434	-0.52210085	0.63418124	0.27107961	-0.33148050	0.27778364	0.59187427	-0.81901228	-0.25527221	-0.39098332	-0.76085889	-0.30890239	-0.23832927
5567	55.66000000	0.94152465	0.22570784	-0.15198974	-0.54736927	0.10272428	-0.78453678	-0.50399556	-0.65376863	-0.20557102	-0.78645510	-0.29671933	0.05870766	-0.53458212	0.62001049	0.27194012	-0.33691469	0.26388443	0.59013164	-0.81905060	-0.26297441	-0.39479381	-0.75137211	-0.32001943	-0.24602449
5568	55.67000000	0.94539251	0.22422036	-0.15339713	-0.54769083	0.10185515	-0.78537935	-0.50139074	-0.65215331	-0.20652408	-0.78298509	-0.30432839	0.06221618	-0.55167020	0.60938180	0.27548513	-0.34010808	0.25278635	0.58948316	-0.82041823	-0.26098095	-0.38913613	-0.74100570	-0.32377129	-0.25086719
5569	55.68000000	0.94527220	0.22035055	-0.15286965	-0.54834037	0.11180275	-0.78632047	-0.49943343	-0.65746090	-0.20732254	-0.78226580	-0.31037209	0.05935163	-0.57471122	0.59441862	0.27070193	-0.34508621	0.25107712	0.59462475	-0.82029537	-0.26684001	-0.39585223	-0.72971886	-0.33828758	-0.25640848
5570	55.69000000	0.94720502	0.22192971	-0.14406951	-0.54412911	0.11722334	-0.78618954	-0.49607964	-0.65792514	-0.20303598	-0.78154953	-0.31789447	0.06237206	-0.58634024	0.57428301	0.26912868	-0.34890444	0.24169408	0.59020301	-0.81767764	-0.27684098	-0.39808995	-0.72471063	-0.34351426	-0.26306141
5571	55.70000000	0.94694115	0.21818021	-0.14701954	-0.54220899	0.11950305	-0.78343835	-0.49089173	-0.66156059	-0.20417024	-0.77464798	-0.32493354	0.06413039	-0.59594666	0.55910046	0.27263351	-0.35159941	0.23053833	0.58950871	-0.81271077	-0.28208971	-0.39999176	-0.72412174	-0.34582260	-0.26258134
5572	55.71000000	0.94236104	0.21860809	-0.14838703	-0.54407239	0.11651739	-0.78390135	-0.49036380	-0.66093025	-0.20821033	-0.76831260	-0.33298888	0.06794390	-0.60435951	0.54037669	0.27887400	-0.35593491	0.22040086	0.59466723	-0.81063493	-0.28689526	-0.40724399	-0.71542508	-0.34778368	-0.27318734
5573	55.72000000	0.94431229	0.21573656	-0.13847406	-0.54463810	0.11913816	-0.78330565	-0.48582778	-0.66283358	-0.20702408	-0.76404139	-0.33511906	0.06668366	-0.61977574	0.52476000	0.27379593	-0.35980287	0.20382946	0.59456278	-0.81307394	-0.29212586	-0.40212058	-0.71754043	-0.34599879	-0.28304232
5574	55.73000000	0.94271772	0.21982121	-0.14035537	-0.54663407	0.12190134	-0.77677451	-0.48352025	-0.66685157	-0.20842769	-0.76246101	-0.34385398	0.06645115	-0.62982854	0.51883531	0.26867599	-0.36297267	0.18862428	0.58589242	-0.80926499	-0.29814454	-0.41002892	-0.72588059	-0.34504891	-0.28883579
5575	55.74000000	0.94655899	0.22329660	-0.14909244	-0.54544271	0.12343952	-0.77679218	-0.47900270	-0.67251013	-0.21140595	-0.75991830	-0.35360955	0.06627850	-0.64226517	0.50444980	0.27931726	-0.36186441	0.17713352	0.59121615	-0.80574737	-0.30575678	-0.41261108	-0.72609577	-0.34290176	-0.29996911
5576	55.75000000	0.94648860	0.21872627	-0.14000867	-0.54748964	0.12052706	-0.78171630	-0.46875969	-0.67842601	-0.21837892	-0.75551051	-0.35757995	0.06781827	-0.64872680	0.49162723	0.27843929	-0.36868672	0.16772359	0.59999846	-0.80715300	-0.31180068	-0.41177856	-0.72114408	-0.33939886	-0.31113460
5577	55.76000000	0.94557303	0.22245907	-0.13677881	-0.54821140	0.12446944	-0.77911363	-0.46513457	-0.67650855	-0.21880544	-0.75851431	-0.36223560	0.06355741	-0.65761783	0.47336571	0.26834556	-0.36857075	0.15776610	0.60366544	-0.80308322	-0.31470595	-0.41622647	-0.72285278	-0.34422111	-0.32258193
5578	55.77000000	0.94527696	0.21932484	-0.14118621	-0.54883514	0.12783478	-0.77630628	-0.46140073	-0.67805501	-0.22111583	-0.75767891	-0.36424602	0.06391735	-0.66371656	0.46686092	0.27291428	-0.36857122	0.14722535	0.60795677	-0.80505787	-0.32272391	-0.41557314	-0.72242880	-0.34191790	-0.33248236
5579	55.78000000	0.94608003	0.21930279	-0.13526905	-0.55641903	0.12445333	-0.77967678	-0.46031436	-0.68277112	-0.22865495	-0.75426049	-0.37145830	0.06350881	-0.67217131	0.45791594	0.27058316	-0.37049608	0.14321368	0.60463997	-0.81086556	-0.33266373	-0.41897107	-0.71851974	-0.34207774	-0.33950041
5580	55.79000000	0.94384544	0.21995094	-0.13339005	-0.55534784	0.13133987	-0.77406767	-0.45428017	-0.68685665	-0.22564850	-0.74986891	-0.38079214	0.05394697	-0.67226398	0.44874910	0.26595049	-0.37418001	0.13993247	0.59659694	-0.81319063	-0.33837146	-0.41806700	-0.71610056	-0.35000157	-0.33810475
5581	55.80000000	0.94377657	0.22114793	-0.13851187	-0.55685268	0.13358349	-0.76999655	-0.44236522	-0.69070174	-0.22792236	-0.75120677	-0.38162202	0.05675293	-0.67773791	0.44851802	0.26773371	-0.37872361	0.13575777	0.59378453	-0.80634817	-0.34116953	-0.41470738	-0.71545575	-0.34785550	-0.33330585
5582	55.81000000	0.94265988	0.22513776	-0.13946638	-0.56405843	0.13228787	-0.76909768	-0.43336070	-0.69661310	-0.23182545	-0.75204449	-0.38660221	0.04958720	-0.68019175	0.44410561	0.27360924	-0.37897121	0.12923429	0.59691375	-0.80486923	-0.34996753	-0.41141184	-0.71364450	-0.35514486	-0.33650079
5583	55.82000000	0.94593039	0.22508771	-0.13415591	-0.56305399	0.13799074	-0.76908549	-0.42401075	-0.70112658	-0.22872716	-0.74903505	-0.39396740	0.04260800	-0.67755505	0.44217568	0.26749194	-0.37870255	0.12757544	0.59253091	-0.80941352	-0.35599858	-0.41643715	-0.71322440	-0.35798084	-0.33601224
5584	55.83000000	0.94886002	0.22691298	-0.13601924	-0.56584177	0.14218462	-0.76309041	-0.41263967	-0.70842652	-0.23003613	-0.74690250	-0.39311756	0.04535149	-0.67334837	0.44323488	0.27222514	-0.38002373	0.12216940	0.58179636	-0.80767138	-0.36488782	-0.41143227	-0.71929700	-0.36139056	-0.32940990
5585	55.84000000	0.94164151	0.22641309	-0.13653031	-0.56484711	0.14314762	-0.76637764	-0.41240196	-0.71274815	-0.23617236	-0.74645490	-0.39338205	0.03962807	-0.67042095	0.43964477	0.28144900	-0.38053117	0.11614994	0.58790423	-0.80773724	-0.37547459	-0.40675125	-0.72226907	-0.37029640	-0.31255718
5586	55.85000000	0.94339904	0.22495281	-0.13664760	-0.57211699	0.14865741	-0.76261976	-0.39717506	-0.71797391	-0.23363677	-0.74369298	-0.39549596	0.03770314	-0.66838024	0.43842755	0.28942339	-0.38190677	0.11619154	0.59304908	-0.81000168	-0.38270813	-0.40187473	-0.72809969	-0.36637457	-0.30494791
5587	55.86000000	0.94816900	0.22644285	-0.13758314	-0.57345816	0.15117165	-0.75345235	-0.38089646	-0.72736847	-0.23395863	-0.74098746	-0.39931007	0.03216946	-0.66388227	0.44339775	0.29761815	-0.38300159	0.10612023	0.58583036	-0.81226212	-0.39305795	-0.38912447	-0.72947826	-0.36341705	-0.29718253
5588	55.87000000	0.94081834	0.22932491	-0.13957670	-0.57650099	0.15284198	-0.75036810	-0.37285749	-0.73308319	-0.23675438	-0.74438887	-0.40035542	0.02611924	-0.65635224	0.44410729	0.30959698	-0.38060839	0.09798592	0.59303724	-0.81141076	-0.40005286	-0.38284662	-0.72876945	-0.36384038	-0.29341010
5589	55.88000000	0.93750389	0.22766301	-0.13822532	-0.58187564	0.16699448	-0.75439162	-0.36126886	-0.73674518	-0.23473499	-0.74724250	-0.40370899	0.02580194	-0.63960923	0.44927031	0.33162167	-0.38007080	0.09268658	0.59617637	-0.81835901	-0.41023363	-0.36994668	-0.72373425	-0.36571167	-0.29528506
5590	55.89000000	0.93650667	0.23148728	-0.14208562	-0.58004126	0.17155803	-0.75126704	-0.34330984	-0.75013107	-0.23176020	-0.75055419	-0.40160956	0.01797229	-0.62644036	0.45849438	0.33871881	-0.37629746	0.08926651	0.59797311	-0.82448244	-0.42070486	-0.35434229	-0.72282701	-0.36365635	-0.29683231
5591	55.90000000	0.93643980	0.23316000	-0.14472470	-0.57620476	0.16996955	-0.75001771	-0.32050285	-0.75619475	-0.22966123	-0.75353444	-0.39588286	0.01343501	-0.62270751	0.46860657	0.33634107	-0.36790865	0.08369921	0.59788961	-0.82574530	-0.42039573	-0.33505682	-0.72005711	-0.37013766	-0.29627102
5592	55.91000000	0.93922216	0.23120974	-0.14733610	-0.58274553	0.17566609	-0.74726866	-0.30429421	-0.76560119	-0.22537769	-0.75764630	-0.38186764	0.00540213	-0.62083116	0.46976930	0.33768805	-0.35730555	0.08394866	0.61267720	-0.83566073	-0.43153490	-0.31020023	-0.71318806	-0.37690791	-0.29515281
5593	55.92000000	0.94099226	0.23275046	-0.14786463	-0.58184726	0.18041848	-0.74309554	-0.28439322	-0.77666512	-0.22185923	-0.76002469	-0.37249490	0.00418248	-0.61805686	0.48028348	0.34185166	-0.34859097	0.08731565	0.62792499	-0.83706411	-0.44331369	-0.27395937	-0.71001739	-0.37811342	-0.29379542
5594	55.93000000	0.94352615	0.23639750	-0.14822072	-0.58111427	0.18582370	-0.74752873	-0.26160017	-0.78897298	-0.21784551	-0.76762451	-0.35813442	0.00614336	-0.61048152	0.47786425	0.35101713	-0.33554482	0.09391446	0.63028386	-0.84181980	-0.44826545	-0.23922784	-0.70189617	-0.38026584	-0.29308625
5595	55.94000000	0.94324880	0.23962460	-0.14836889	-0.58470567	0.19115758	-0.74944574	-0.23960470	-0.79896648	-0.20391617	-0.77875336	-0.33925648	-0.00253861	-0.61073607	0.47574566	0.35639868	-0.33254514	0.09986209	0.63959475	-0.85060550	-0.45631779	-0.19485593	-0.70565227	-0.38411043	-0.29081218
5596	55.95000000	0.93936545	0.24063575	-0.14692372	-0.58173167	0.18662766	-0.74034855	-0.21620923	-0.80644361	-0.19197641	-0.78333853	-0.32726040	-0.01005837	-0.60540346	0.48192674	0.36449027	-0.33109230	0.10802091	0.63954162	-0.84848914	-0.47329412	-0.14160212	-0.69980910	-0.38686485	-0.28500922
